<svg width="61" height="79" viewBox="0 0 61 79" fill="none" xmlns="http://www.w3.org/2000/svg">
<path d="M60.1519 25.8127C60.1519 21.9002 58.5796 18.1517 55.7885 15.4099L50.1266 9.8481L44.356 4.17952C41.6291 1.50086 37.9595 0 34.1371 0H6.68354C3.24051 0 0 3.74683 0 6.5654V72.2194C0 75.8454 2.99232 78.7848 6.68354 78.7848H53.4684C57.1596 78.7848 60.1519 75.8454 60.1519 72.2194V25.8127Z" fill="url(#paint0_linear_289_3)"/>
<path d="M60.1519 25.8127C60.1519 21.9002 58.5796 18.1517 55.7885 15.4099L50.1266 9.8481L44.356 4.17952C41.6291 1.50086 37.9595 0 34.1371 0H6.68354C3.24051 0 0 3.74683 0 6.5654V72.2194C0 75.8454 2.99232 78.7848 6.68354 78.7848H53.4684C57.1596 78.7848 60.1519 75.8454 60.1519 72.2194V25.8127Z" fill="url(#paint1_linear_289_3)" fill-opacity="0.2"/>
<path d="M46.2988 28.7595H14.0557C13.1161 28.7595 12.3545 29.5212 12.3545 30.4608V31.919C12.3545 32.8586 13.1161 33.6203 14.0557 33.6203H46.2988C47.2383 33.6203 48 32.8586 48 31.919V30.4608C48 29.5212 47.2383 28.7595 46.2988 28.7595Z" fill="white"/>
<path d="M46.2988 37.6709H14.0557C13.1161 37.6709 12.3545 38.4326 12.3545 39.3722V40.8304C12.3545 41.77 13.1161 42.5317 14.0557 42.5317H46.2988C47.2383 42.5317 48 41.77 48 40.8304V39.3722C48 38.4326 47.2383 37.6709 46.2988 37.6709Z" fill="white"/>
<path d="M46.2988 46.5823H14.0557C13.1161 46.5823 12.3545 47.344 12.3545 48.2835V49.7418C12.3545 50.6814 13.1161 51.443 14.0557 51.443H46.2988C47.2383 51.443 48 50.6814 48 49.7418V48.2835C48 47.344 47.2383 46.5823 46.2988 46.5823Z" fill="white"/>
<path d="M30.7038 55.4937H14.0557C13.1161 55.4937 12.3545 56.2554 12.3545 57.1949V58.6532C12.3545 59.5928 13.1161 60.3544 14.0557 60.3544H30.7038C31.6434 60.3544 32.4051 59.5928 32.4051 58.6532V57.1949C32.4051 56.2554 31.6434 55.4937 30.7038 55.4937Z" fill="white"/>
<defs>
<linearGradient id="paint0_linear_289_3" x1="30.076" y1="49.25" x2="30.0839" y2="78.7848" gradientUnits="userSpaceOnUse">
<stop stop-color="#F3F3F3"/>
<stop offset="1" stop-color="#E3E3E3"/>
</linearGradient>
<linearGradient id="paint1_linear_289_3" x1="5.46836" y1="1.11392" x2="39.7975" y2="68.7595" gradientUnits="userSpaceOnUse">
<stop stop-color="white"/>
<stop offset="1" stop-color="#4E4E4E"/>
</linearGradient>
</defs>
</svg>
