<svg width="80" height="81" viewBox="0 0 80 81" fill="none" xmlns="http://www.w3.org/2000/svg">
<g clip-path="url(#clip0_121_159)">
<path d="M70.0759 26.0627C70.0759 22.1502 68.5037 18.4017 65.7125 15.6599L60.0506 10.0981L54.28 4.42952C51.5532 1.75086 47.8836 0.25 44.0612 0.25H16.6076C13.1645 0.25 9.92404 3.99683 9.92404 6.8154V72.4694C9.92404 76.0954 12.9164 79.0348 16.6076 79.0348H63.3924C67.0836 79.0348 70.0759 76.0954 70.0759 72.4694V26.0627Z" fill="url(#paint0_linear_121_159)"/>
<path d="M70.0759 26.0627C70.0759 22.1502 68.5037 18.4017 65.7125 15.6599L60.0506 10.0981L54.28 4.42952C51.5532 1.75086 47.8836 0.25 44.0612 0.25H16.6076C13.1645 0.25 9.92404 3.99683 9.92404 6.8154V72.4694C9.92404 76.0954 12.9164 79.0348 16.6076 79.0348H63.3924C67.0836 79.0348 70.0759 76.0954 70.0759 72.4694V26.0627Z" fill="url(#paint1_linear_121_159)" fill-opacity="0.2"/>
<path d="M56.2228 29.0095H23.9798C23.0402 29.0095 22.2785 29.7712 22.2785 30.7108V32.169C22.2785 33.1086 23.0402 33.8703 23.9798 33.8703H56.2228C57.1624 33.8703 57.9241 33.1086 57.9241 32.169V30.7108C57.9241 29.7712 57.1624 29.0095 56.2228 29.0095Z" fill="white"/>
<path d="M56.2228 37.9209H23.9797C23.0402 37.9209 22.2785 38.6826 22.2785 39.6222V41.0804C22.2785 42.02 23.0402 42.7817 23.9797 42.7817H56.2228C57.1624 42.7817 57.924 42.02 57.924 41.0804V39.6222C57.924 38.6826 57.1624 37.9209 56.2228 37.9209Z" fill="white"/>
<path d="M56.2228 46.8323H23.9797C23.0402 46.8323 22.2785 47.594 22.2785 48.5335V49.9918C22.2785 50.9314 23.0402 51.693 23.9798 51.693H56.2228C57.1624 51.693 57.924 50.9314 57.924 49.9918V48.5335C57.924 47.594 57.1624 46.8323 56.2228 46.8323Z" fill="white"/>
<path d="M40.6278 55.7437H23.9797C23.0402 55.7437 22.2785 56.5054 22.2785 57.4449V58.9032C22.2785 59.8428 23.0402 60.6044 23.9797 60.6044H40.6278C41.5674 60.6044 42.3291 59.8428 42.3291 58.9032V57.4449C42.3291 56.5054 41.5674 55.7437 40.6278 55.7437Z" fill="white"/>
</g>
<defs>
<linearGradient id="paint0_linear_121_159" x1="40" y1="49.5" x2="40.0079" y2="79.0348" gradientUnits="userSpaceOnUse">
<stop stop-color="#F3F3F3"/>
<stop offset="1" stop-color="#E3E3E3"/>
</linearGradient>
<linearGradient id="paint1_linear_121_159" x1="15.3924" y1="1.36392" x2="49.7215" y2="69.0095" gradientUnits="userSpaceOnUse">
<stop stop-color="white"/>
<stop offset="1" stop-color="#4E4E4E"/>
</linearGradient>
<clipPath id="clip0_121_159">
<rect width="80" height="80" fill="white" transform="translate(0 0.25)"/>
</clipPath>
</defs>
</svg>
